<?xml version="1.0" standalone="no"?>
<!DOCTYPE svg PUBLIC "-//W3C//DTD SVG 20010904//EN"
 "http://www.w3.org/TR/2001/REC-SVG-20010904/DTD/svg10.dtd">
<svg version="1.0" xmlns="http://www.w3.org/2000/svg"
 width="900.000000pt" height="900.000000pt" viewBox="0 0 900.000000 900.000000"
 preserveAspectRatio="xMidYMid meet">
<metadata>
Created by potrace 1.16, written by Peter Selinger 2001-2019
</metadata>
<g transform="translate(0.000000,900.000000) scale(0.100000,-0.100000)"
fill="#000000" stroke="none">
<path d="M3655 8835 c-37 -19 -99 -56 -139 -83 -94 -65 -164 -100 -226 -113
-28 -6 -63 -21 -78 -33 -51 -42 -893 -513 -1042 -583 -82 -38 -142 -85 -255
-198 -104 -105 -158 -191 -247 -392 -100 -228 -151 -450 -184 -803 -18 -185
-23 -699 -15 -1379 l4 -334 38 -36 c48 -47 187 -126 269 -153 53 -17 98 -22
237 -26 191 -5 312 7 375 38 23 11 45 20 49 20 17 0 26 -359 35 -1390 6 -705
3 -831 -26 -1255 -21 -289 -34 -439 -55 -605 -24 -187 -55 -531 -57 -626 -1
-80 1 -95 26 -144 44 -86 107 -169 192 -251 118 -114 157 -130 569 -233 286
-72 287 -72 478 -101 201 -30 470 -52 732 -60 110 -3 268 -8 350 -10 236 -8
461 14 702 71 144 33 593 160 670 189 145 55 307 158 340 217 18 33 16 84 -12
272 -13 92 -29 253 -35 359 -16 294 -79 1315 -96 1562 -8 121 -18 384 -21 585
-5 336 -3 389 21 670 14 168 30 384 36 480 6 96 13 180 14 185 2 6 10 -6 18
-26 13 -30 23 -38 61 -47 147 -37 516 -40 747 -7 242 36 450 106 494 167 18
26 19 32 7 95 -7 38 -15 156 -18 263 -3 112 -10 198 -16 201 -5 4 -6 12 -2 19
5 9 4 11 -3 6 -7 -4 -12 -14 -12 -22 0 -14 -14 -22 -67 -38 -20 -6 -22 -3 -28
71 -3 43 -8 95 -11 116 -5 32 -3 37 14 37 21 0 32 -38 32 -118 0 -36 3 -43 18
-40 15 3 17 14 14 92 -2 69 0 87 10 84 9 -3 15 -32 19 -84 l5 -79 2 82 c1 45
5 84 10 86 4 3 6 39 4 80 l-3 74 -52 7 c-121 14 -193 58 -242 147 -80 144 4
336 179 409 l58 25 -6 137 c-20 415 -80 734 -176 934 -51 107 -166 269 -259
369 -139 148 -228 214 -523 384 -541 313 -795 469 -903 556 -22 17 -53 35 -69
39 -16 4 -83 44 -148 89 -116 79 -119 81 -151 68 -206 -81 -378 -116 -543
-110 l-74 3 -43 -42 -42 -41 -69 51 -69 52 -146 7 c-151 8 -290 31 -446 74
-118 33 -141 32 -220 -10z m1660 -1305 c146 -50 249 -168 301 -345 26 -89 24
-243 -4 -316 -79 -200 -297 -255 -515 -127 -231 135 -337 405 -242 615 75 167
267 239 460 173z m-2166 -95 c-3 -2 -42 -29 -88 -60 -77 -52 -189 -145 -373
-312 -189 -171 -249 -139 -174 93 20 59 36 116 36 126 0 10 3 18 8 18 4 0 5
-37 4 -83 -5 -118 19 -134 105 -65 65 52 325 220 393 254 56 29 103 44 89 29z
m1006 -1020 c108 -28 184 -72 265 -154 119 -120 180 -256 182 -408 2 -133 -49
-262 -157 -397 -30 -38 -55 -70 -55 -72 0 -3 26 -37 59 -77 143 -177 176 -311
131 -532 -35 -170 -92 -283 -197 -391 -143 -147 -354 -244 -594 -275 -157 -20
-406 25 -581 104 -159 73 -281 181 -314 279 -39 119 -15 343 52 485 76 159
233 236 420 204 93 -16 164 -52 217 -111 52 -58 70 -113 65 -200 l-3 -62 44 6
c61 8 139 54 169 99 29 44 51 119 44 154 -7 35 -36 50 -169 90 -216 63 -293
116 -293 197 0 76 42 117 220 216 132 74 155 91 138 101 -25 16 -152 39 -383
70 -143 19 -246 37 -272 49 -47 21 -83 69 -83 112 0 116 144 279 340 385 112
60 296 120 439 143 77 12 244 5 316 -15z m3277 -1006 c-20 -52 -27 -86 -24
-115 4 -38 2 -42 -22 -46 -32 -6 -36 -2 -36 38 0 21 -14 56 -40 96 -40 63 -48
88 -31 88 5 0 16 3 24 6 10 3 23 -8 40 -36 l24 -41 21 50 c15 37 26 50 44 53
12 2 24 -2 26 -8 2 -6 -10 -44 -26 -85z m-182 -58 c0 -115 -1 -119 -22 -125
-37 -9 -38 -8 -38 39 l0 45 -50 0 -50 0 0 -44 c0 -39 -3 -45 -25 -50 -43 -11
-47 0 -41 88 12 150 14 156 47 156 28 0 29 -2 29 -45 0 -40 2 -45 23 -45 53 0
67 11 67 49 0 44 5 51 37 51 23 0 23 -1 23 -119z"/>
<path d="M5097 7510 c-180 -46 -278 -237 -221 -431 26 -87 60 -144 128 -216
188 -200 461 -199 560 2 55 113 46 278 -24 421 -40 83 -138 174 -217 204 -66
25 -170 34 -226 20z m219 -140 c90 -44 155 -141 173 -259 40 -251 -202 -375
-392 -201 -77 70 -109 136 -115 232 -4 69 -2 84 22 133 15 30 41 64 58 76 72
52 171 59 254 19z"/>
<path d="M5114 7325 c-4 -9 -2 -26 3 -38 6 -13 7 -32 2 -44 -5 -13 -4 -25 1
-28 15 -9 12 -83 -2 -88 -10 -3 -10 -7 1 -20 10 -12 12 -31 7 -67 -4 -31 -3
-50 3 -50 6 0 11 23 13 52 l3 52 48 2 c26 1 47 -3 47 -8 0 -6 7 -8 15 -4 8 3
15 1 15 -4 0 -5 -18 -14 -41 -20 -38 -11 -40 -13 -34 -41 8 -37 -7 -58 -40
-51 -34 6 -32 -14 3 -31 31 -16 62 -12 62 8 0 8 7 18 16 23 11 6 13 11 5 16
-15 10 -14 23 3 29 19 8 66 -37 66 -63 0 -15 -6 -20 -25 -20 -16 0 -25 -6 -25
-15 0 -8 3 -14 8 -14 4 1 9 1 12 -1 37 -14 48 -8 58 32 10 38 9 45 -9 61 -11
11 -18 26 -15 34 3 8 2 22 -3 31 -4 9 -11 32 -14 50 -5 24 -3 32 8 32 20 0 19
26 0 34 -8 3 -15 13 -15 22 0 11 5 14 16 10 11 -4 14 -1 12 12 -2 9 3 23 12
29 13 11 10 17 -20 42 -19 17 -36 26 -38 20 -2 -5 -10 -9 -17 -9 -8 0 -11 -7
-8 -20 4 -14 0 -20 -12 -20 -14 0 -15 -3 -6 -14 8 -10 9 -16 1 -21 -5 -3 -10
-18 -10 -33 l0 -27 -20 33 c-11 17 -24 32 -29 32 -16 0 -21 30 -8 50 9 15 9
25 1 38 -15 23 -43 27 -50 7z"/>
<path d="M3863 6319 c-200 -24 -420 -108 -562 -215 -73 -54 -153 -157 -149
-188 7 -49 74 -30 453 129 205 86 303 117 396 122 59 4 88 2 93 -6 4 -6 2 -11
-4 -11 -16 0 -100 -80 -116 -112 -17 -33 -20 -32 76 -12 118 25 185 9 255 -61
35 -36 81 -113 72 -122 -3 -2 -14 0 -25 6 -28 15 -84 14 -106 -2 -16 -12 -16
-16 8 -62 66 -133 30 -277 -96 -378 -21 -17 -40 -28 -43 -26 -2 3 2 23 10 44
17 47 19 121 5 130 -6 4 -41 -15 -78 -41 -91 -64 -276 -159 -348 -179 -104
-29 -104 -29 -18 -54 307 -90 437 -148 537 -240 42 -39 69 -74 87 -116 27 -59
46 -125 37 -125 -3 0 -25 11 -48 25 -24 14 -55 25 -69 25 l-25 0 0 -112 c0
-107 -2 -117 -32 -181 -22 -47 -53 -88 -95 -130 -57 -56 -83 -64 -59 -19 14
27 25 116 17 148 -7 27 -9 26 -89 -58 -45 -47 -100 -96 -122 -110 -66 -41
-153 -69 -238 -75 l-81 -6 43 38 c23 21 49 52 58 68 l15 30 -68 -9 c-127 -16
-206 -9 -279 25 -61 28 -182 128 -170 139 3 3 28 5 55 3 27 -1 59 0 70 4 18 6
18 9 -15 56 -41 60 -51 105 -35 155 12 35 84 124 100 124 5 0 6 -18 3 -40 -4
-27 0 -47 11 -65 22 -33 29 -32 49 11 38 79 160 80 204 2 11 -21 12 -19 13 25
0 60 -18 103 -61 144 -66 63 -208 89 -313 59 -180 -53 -290 -348 -205 -547 50
-114 241 -239 454 -295 85 -23 122 -27 250 -28 181 -1 266 18 420 93 252 124
395 342 396 606 1 135 -35 220 -148 353 -69 82 -86 114 -74 144 5 13 37 57 70
98 194 236 199 494 12 681 -112 112 -297 163 -498 138z"/>
<path d="M3865 6086 c-38 -13 -151 -57 -250 -98 -99 -41 -204 -83 -232 -93
-29 -11 -53 -22 -53 -26 0 -3 30 -9 68 -13 129 -13 339 -46 390 -61 100 -30
143 -98 109 -170 -19 -41 -54 -67 -182 -140 -55 -32 -115 -69 -134 -83 -31
-23 -32 -26 -14 -33 60 -22 278 67 449 184 100 68 117 74 143 48 15 -15 21
-34 21 -68 l1 -48 25 49 c14 27 28 72 31 102 5 45 1 62 -26 119 -17 37 -31 76
-31 87 0 26 47 68 76 68 38 0 28 16 -28 44 -61 31 -86 32 -196 9 -62 -13 -87
-14 -100 -6 -25 16 -21 82 7 122 27 37 21 38 -74 7z"/>
<path d="M3990 5094 c11 -47 -13 -155 -45 -210 -63 -107 -147 -157 -274 -162
-80 -4 -86 -6 -119 -38 -44 -43 -67 -46 -46 -6 7 15 14 49 14 75 0 40 -5 54
-29 78 -16 16 -39 29 -50 29 -27 0 -61 -34 -61 -60 0 -11 -11 -27 -24 -35 -29
-19 -64 -8 -95 31 -26 33 -33 27 -35 -24 0 -31 7 -50 37 -88 47 -60 47 -92 -1
-116 -19 -9 -36 -18 -38 -21 -3 -3 24 -20 60 -37 73 -36 127 -41 273 -26 111
12 135 -7 98 -78 -9 -16 -13 -31 -11 -34 9 -9 136 40 173 67 21 15 72 65 113
110 80 88 98 96 131 51 11 -14 20 -42 21 -63 3 -37 3 -38 20 -17 9 11 26 46
38 77 18 48 21 74 18 166 -3 105 -2 109 21 128 24 19 41 20 86 3 16 -6 16 -5
2 22 -31 59 -145 149 -248 196 l-37 17 8 -35z"/>
<path d="M7439 6172 c-31 -21 -92 -88 -109 -121 -20 -38 -16 -130 8 -177 11
-22 27 -46 36 -53 17 -15 20 -5 67 204 16 72 32 138 35 148 7 22 -4 22 -37 -1z"/>
</g>
</svg>
